<?xml version="1.0" standalone="no"?><!DOCTYPE svg PUBLIC "-//W3C//DTD SVG 1.1//EN" "http://www.w3.org/Graphics/SVG/1.1/DTD/svg11.dtd"><svg t="1680579519709" class="icon" viewBox="0 0 2543 1024" version="1.1" xmlns="http://www.w3.org/2000/svg" p-id="1056" xmlns:xlink="http://www.w3.org/1999/xlink" width="496.6796875" height="200"><path d="M1755.479579 781.279943H743.678309v62.215173h1011.80127v-62.23168zM2503.481256 512.67679c-22.548667-39.154786-54.919044-69.659864-96.17023-91.053035-50.59419-25.949125-168.10807-45.163362-253.961376-59.342941-23.274978-3.829642-43.661218-7.197085-59.474997-10.069317l-31.660573 57.164007c40.524873 6.965986 79.861237 13.205661 114.625141 18.735532 80.587549 12.743463 144.370893 22.829287 177.715188 33.872521 43.166006 14.179579 74.347874 38.197376 95.212819 73.52252 21.34365 36.266048 31.412967 83.360738 30.20795 144.139795-0.95741 55.018087-46.285843 99.702744-100.726182 99.702743h-111.505304a15.648709 15.648709 0 0 1-15.120482-12.000645c-19.412322-88.643002-95.675017-156.404552-185.374472-164.823161a211.356611 211.356611 0 0 0-153.730406 46.847084 213.849179 213.849179 0 0 0-72.664152 119.412193c-0.478705 2.393526-0.95741 4.787052-1.188509 7.675791l-1.205017 13.94848c-0.726311 9.128413-0.95741 18.487926-0.726311 27.863945l0.726311 29.795274a211.290583 211.290583 0 0 0 58.517587 113.403617 211.505175 211.505175 0 0 0 62.594835 43.232034c27.566818 12.726956 57.064964 18.983138 87.289422 18.983139 67.381887 0 130.703034-32.436406 170.518103-87.223394l-52.773124-33.393816a148.118 148.118 0 0 1-40.755973 36.530161l-3.119837 1.91482-0.478706-0.478705a147.243125 147.243125 0 0 1-73.869168 19.70945 148.844311 148.844311 0 0 1-62.825934-13.94848l-0.495213-0.231099a11.918109 11.918109 0 0 0-1.667214-0.726311 8.996357 8.996357 0 0 0-2.641133-1.205017 149.686172 149.686172 0 0 1-38.857658-29.052455l-0.231099 0.231099-3.119838-3.598543a148.250056 148.250056 0 0 1-38.378953-95.377889v-0.973918l0.495212-3.598543c0.231099-81.924622 66.655576-148.233549 148.448141-148.233549h5.992069c63.552246 2.410033 119.907406 47.325789 137.173808 109.309862 3.119838 11.059741 4.803559 22.119483 5.282265 33.393817v0.495212a35.754328 35.754328 0 0 0 35.721314 34.582326h147.738337c89.930554 0 163.073411-72.548602 163.073411-161.439211 0-66.787633-12.958055-123.010736-38.610052-167.695393z" fill="#17BE17" p-id="1057"></path><path d="M1975.403363 390.887578c9.111906-12.743463 12.710449-27.632847 10.069317-42.060032a52.129348 52.129348 0 0 0-22.548667-34.334719l-109.590483-78.573686-4.077248-2.888738 0.231099-0.231099a988.080601 988.080601 0 0 0-33.806493-23.786698l-6.470774-4.57246v0.247606l-3.846149-2.641132a1190.193249 1190.193249 0 0 0-320.40236-151.122288A1186.809298 1186.809298 0 0 0 1140.822069 0H735.523813c-136.678596 0-323.753297 32.436406-438.378438 187.388335l-0.247606 0.247607-0.247606 0.231099-75.288777 84.087049h83.690879l38.131347-42.52223c54.919044-63.898894 116.077764-107.873747 187.058194-134.532676 58.765193-22.119483 123.984654-32.436406 205.282007-32.436406h299.768514v215.747494h62.11613V62.215172h43.182513c110.547893 0 220.154883 16.110907 326.146822 48.052101a1129.414192 1129.414192 0 0 1 314.888997 150.874681l95.691524 68.471355a10.382951 10.382951 0 0 1 4.308347 8.897314 10.861657 10.861657 0 0 1-5.282265 8.633201l-1.188509 0.726312H154.210598a63.387175 63.387175 0 0 0-62.594836 52.62456l-26.147209 147.259632-0.709804 3.846149-3.846149 0.247606A63.156076 63.156076 0 0 0 0.001486 615.268272v30.273979c0 69.90747 25.916111 94.420479 73.142858 139.088629 4.555953 4.324854 9.590612 8.897314 14.62527 13.931973 31.429474 30.04288 74.116775 44.684657 131.181739 44.932263l61.88503 0.247606c17.745108 0 25.173292-17.299416 26.378309-33.393817 2.872231-40.855015 16.308992-74.248831 39.815069-98.992939 29.729245-31.231389 66.193378-47.804494 105.513235-47.804494 43.644711 0 87.289422 21.129058 116.787568 56.454202 28.788342 34.598833 40.541381 77.121063 32.849083 119.890899-10.779121 60.052745-58.269981 107.873747-118.223684 118.916981a153.845955 153.845955 0 0 1-27.814424 2.641132 147.408196 147.408196 0 0 1-113.436632-52.85566l-48.926975 38.676081c40.277267 48.778412 99.042461 76.642357 162.363607 76.642358 5.992069 0 12.215237-0.247606 18.223812-0.726312 48.200664-4.077248 94.255408-25.453912 129.250411-60.052745a211.026469 211.026469 0 0 0 62.132637-128.5241 207.460941 207.460941 0 0 0-10.069316-89.138214 213.601573 213.601573 0 0 0-43.413612-74.001225c-40.062675-44.189444-96.896541-69.659864-156.123932-69.659864-100.478576 0-187.3058 71.822291-206.487024 170.81523a11.043234 11.043234 0 0 1-10.795628 9.128413l-43.644711-1.683721c-19.428829-0.726311-39.567463-1.683722-54.671438-16.820712l-59.243898-60.300351a63.304639 63.304639 0 0 1-18.471419-44.932263v-24.017797c0-10.085824 6.965986-18.735532 16.787697-21.129058a63.304639 63.304639 0 0 0 47.243253-50.940839l22.548667-127.566689a28.359158 28.359158 0 0 1 28.062031-23.555599h1626.45878l129.745624 1.205017H1935.588294c15.351581-0.726311 30.703163-8.418609 39.815069-21.129058z" fill="#17BE17" p-id="1058"></path></svg>